<?xml version="1.0" encoding="UTF-8"?>
<svg id="Layer_1" data-name="Layer 1" xmlns="http://www.w3.org/2000/svg" version="1.1" xmlns:xlink="http://www.w3.org/1999/xlink" viewBox="0 0 300 250">
  <defs>
    <style>
      .cls-1 {
        fill: url(#linear-gradient);
        stroke-width: 4px;
      }

      .cls-1, .cls-2 {
        stroke: #231f20;
        stroke-miterlimit: 10;
      }

      .cls-2 {
        fill: none;
        stroke-width: 5px;
      }

      .cls-3 {
        fill: #fff;
        stroke-width: 0px;
      }
    </style>
    <linearGradient id="linear-gradient" x1="224.6" y1="84.4" x2="290.1" y2="102" gradientUnits="userSpaceOnUse">
      <stop offset="0" stop-color="#231f20"/>
      <stop offset="1" stop-color="#fff"/>
    </linearGradient>
  </defs>
  <path class="cls-3" d="M131.9,250H.8V0c47.1.3,94.2.6,141.2.9-3,2.7-8,6.3-15.2,8.5-8.1,2.5-15,1.3-21.7,1.2-25.9-.4-33.5-6.8-52.6-4.7-6.1.7-15.7,1.8-24.7,7.4C10.8,24,9.1,43,8.5,50.3c-.8,9.3,1.6,17.7,6.3,34.5,2.2,7.8,4,14,7.9,22,5.5,10.9,9.2,13.2,13.6,21.6,5.8,11,6,20.5,7.1,29.3,5.8,46.5-21.5,71.4-7.9,82.1,4.6,3.6,24.4,3.4,64.2,2.6,6.5-.1,21-4.2,28.5,2.1,2.2,1.8,3.2,4,3.7,5.5Z"/>
  <path class="cls-3" d="M124.3,250h174.9V0H123.9c0,4.1.1,7.1.4,7.2,0,0,0,0,0,0,0,0,.3,0,.6.2,1.7.5,4.9.8,21,1,54.6.7,63.7-3.2,77.3,2.7,16,7,25.6,21.9,27.4,34.3.9,6-1.1,13.5-5.1,28.4-3.6,13.5-5.4,20.2-9.4,27.8-8.1,15.5-14.5,16.5-21.7,31.6-4.1,8.7-5.4,15.6-6.7,22.3-1.1,6.1-3,19,.3,46.4,3.7,29.9,8.2,34.4,3,38.8-4.9,4.1-11.8,2.7-60.7,1.1-5.9-.2-13.8-2.7-19.9.9-3.5,2-5.3,5.1-6.2,7.4Z"/>
  <path class="cls-2" d="M103.7,242.3c27.4-.3,30.8,1.1,67.4,1.3,23.8.1,35.8.1,38.7-1.9,18.2-12.9-16-45-3.9-90.4,6-22.4,15.1-17.5,30.2-54.7,20.3-50.1,8.4-68.1,3.1-74.5-1.6-1.9-5.4-7.3-13.2-10.8-8.8-4-17.7-3.4-21.7-3.2-37.5,2.2-76.5,2.8-93.7,2.5-8.5-.1-13.6-.2-20.9-.6-29.6-1.9-40.7-6.8-55-1.9-8,2.8-12.8,7.1-14.7,8.9C.1,35.5,10.4,68.3,17.7,90.8c10.8,33,18,29.4,23.2,50.3,12.3,49.4-23.7,87.3-5.4,98.6,2.7,1.7,12.4,2,31.8,2.5,15.6.5,24.1.1,36.4,0Z"/>
  <path class="cls-1" d="M226.2,141.1c16.2-2.8,31.6-5.3,43.4-13.4,30.6-20.9,31.2-68.2,7.6-86.6-9.1-7-24.1-11.7-28.7-8.3-2.4,1.8-.1,4.7-1,14.6-.9,10-3.6,11.9-1.3,15.2,2.2,2.9,5.2,2.3,16.6,7.3,5.6,2.5,8.4,3.7,9.7,4.9,9.8,9-1.8,39.8-20.9,43.9-9,1.9-24-1.2-28.3,2.7-2,1.9-3.8,4.1-3.8,4.1-1.4,1.9-2.1,3.4-2.6,4-5.5,8.2-8,9.9-7.2,11.2,1.5,2.8,14,.7,16.5.2Z"/>
</svg>