<?xml version="1.0" encoding="UTF-8"?>
<svg id="Layer_1" data-name="Layer 1" xmlns="http://www.w3.org/2000/svg" version="1.1" xmlns:xlink="http://www.w3.org/1999/xlink" viewBox="0 0 500 500">
  <defs>
    <style>
      .cls-1 {
        fill: url(#New_Gradient_Swatch-11);
      }

      .cls-1, .cls-2, .cls-3, .cls-4, .cls-5, .cls-6, .cls-7, .cls-8, .cls-9, .cls-10, .cls-11, .cls-12, .cls-13, .cls-14, .cls-15, .cls-16, .cls-17 {
        stroke: #000;
        stroke-miterlimit: 10;
        stroke-width: 5px;
      }

      .cls-2 {
        fill: url(#New_Gradient_Swatch-12);
      }

      .cls-3 {
        fill: url(#New_Gradient_Swatch-3);
      }

      .cls-4 {
        fill: url(#New_Gradient_Swatch-5);
      }

      .cls-5 {
        fill: #2b3990;
      }

      .cls-6 {
        fill: url(#New_Gradient_Swatch-10);
      }

      .cls-7 {
        fill: url(#linear-gradient);
      }

      .cls-8 {
        fill: #662d91;
      }

      .cls-9 {
        fill: url(#New_Gradient_Swatch-8);
      }

      .cls-10 {
        fill: url(#New_Gradient_Swatch-9);
      }

      .cls-11 {
        fill: url(#New_Gradient_Swatch-6);
      }

      .cls-12 {
        fill: url(#New_Gradient_Swatch-2);
      }

      .cls-13 {
        fill: #92278f;
      }

      .cls-14 {
        fill: url(#New_Gradient_Swatch-4);
      }

      .cls-15 {
        fill: url(#New_Gradient_Swatch);
      }

      .cls-16 {
        fill: #9e1f63;
      }

      .cls-17 {
        fill: url(#New_Gradient_Swatch-7);
      }
    </style>
    <linearGradient id="linear-gradient" x1="5.2" y1="267.7" x2="490.8" y2="267.7" gradientUnits="userSpaceOnUse">
      <stop offset="0" stop-color="#2484c6"/>
      <stop offset="1" stop-color="#c6245a"/>
    </linearGradient>
    <linearGradient id="New_Gradient_Swatch" data-name="New Gradient Swatch" x1="140.2" y1="250" x2="-.4" y2="390.7" gradientUnits="userSpaceOnUse">
      <stop offset="0" stop-color="#f2cf45"/>
      <stop offset=".3" stop-color="#ffd059"/>
      <stop offset=".9" stop-color="#ff6a2a"/>
    </linearGradient>
    <linearGradient id="New_Gradient_Swatch-2" data-name="New Gradient Swatch" x1="332" y1="224" x2="273.1" y2="282.9" xlink:href="#New_Gradient_Swatch"/>
    <linearGradient id="New_Gradient_Swatch-3" data-name="New Gradient Swatch" x1="183.3" y1="268.1" x2="115.4" y2="336.1" xlink:href="#New_Gradient_Swatch"/>
    <linearGradient id="New_Gradient_Swatch-4" data-name="New Gradient Swatch" x1="295.8" y1="178" x2="179.3" y2="294.6" xlink:href="#New_Gradient_Swatch"/>
    <linearGradient id="New_Gradient_Swatch-5" data-name="New Gradient Swatch" x1="416.1" y1="150.8" x2="323.6" y2="243.4" xlink:href="#New_Gradient_Swatch"/>
    <linearGradient id="New_Gradient_Swatch-6" data-name="New Gradient Swatch" x1="485.4" y1="160.9" x2="375.6" y2="270.7" xlink:href="#New_Gradient_Swatch"/>
    <linearGradient id="New_Gradient_Swatch-7" data-name="New Gradient Swatch" x1="395.4" y1="328.4" x2="363.7" y2="360.1" xlink:href="#New_Gradient_Swatch"/>
    <linearGradient id="New_Gradient_Swatch-8" data-name="New Gradient Swatch" x1="253.2" y1="363.6" x2="181.2" y2="435.5" xlink:href="#New_Gradient_Swatch"/>
    <linearGradient id="New_Gradient_Swatch-9" data-name="New Gradient Swatch" x1="285" y1="332.5" x2="258.1" y2="359.5" xlink:href="#New_Gradient_Swatch"/>
    <linearGradient id="New_Gradient_Swatch-10" data-name="New Gradient Swatch" x1="159.5" y1="172.3" x2="131.9" y2="199.9" xlink:href="#New_Gradient_Swatch"/>
    <linearGradient id="New_Gradient_Swatch-11" data-name="New Gradient Swatch" x1="311.2" y1="131" x2="288.4" y2="153.7" xlink:href="#New_Gradient_Swatch"/>
    <linearGradient id="New_Gradient_Swatch-12" data-name="New Gradient Swatch" x1="377.9" y1="64.2" x2="342.4" y2="99.7" xlink:href="#New_Gradient_Swatch"/>
  </defs>
  <path class="cls-7" d="M100.1,209c4.8-5.2,3.9-8.5,7.1-15.7,8.1-17.9,29.3-25.4,41.1-30,41.6-16.3,157.6-71.3,185.1-84.8,11.6-5.7,28.7-14.2,47.5-9.6,21.4,5.3,34.6,25.2,38,30.2,8.6,12.9,3.5,19.3,11.9,28,10.4,10.8,20.8,6.2,34.5,14.6,19.2,11.7,30.6,40.2,23.2,60.6-7.2,19.9-29.5,24.6-26.9,36.1,2.4,10.4,22.3,8.9,26.9,23.6,2.4,7.8,1.5,19-5.5,25.8-8.3,8-18.5,3.3-24.5,11.1-5.6,7.2.7,14.3-3.2,22.8-4.7,10.4-20.2,13.1-36.4,16.2-14.5,2.8-57.7,11-81.5,18.4-20.4,6.3-33.4,14.2-53.8,26.5-32.5,19.7-47.5,35.7-98.9,70-12.2,8.2-24,15.7-39.6,14.7-1.3,0-26.4-2-37.2-22.1-6.5-12.1,3.1-21.9-3.2-27.3-5.7-4.9-14.7,1.5-35.8,3.4-13.8,1.3-32.5,3-47-7-1.2-.8-17.7-12.5-16.9-27.3,0-.1,0-.2,0-.3.2-2.7,1.6-16.2,13.8-24.4,1.5-1,13.7-9.5,23.3-5.5,8.3,3.4,6.2,12.6,14.3,16,7.6,3.2,20.2-.2,24-8.4,3.4-7.4-1.9-15.8-6.6-20.1-8.5-7.7-17.5-4.5-29.9-8.4-17.9-5.5-30.3-21.9-35.2-35.8-8-22.7,1.2-46.7,15.4-60.4,11.4-11.1,26.4-15.7,32.6-17.7,20.4-6.4,33.7-3,43.2-13.4ZM447.3,96.3c2.5,4,10.7,5.3,15.8,2.9,10.8-5,8-25.7,2.4-27.4-6.2-2-23,16.7-18.2,24.6ZM51.2,204.6c5.5,1.8,14.3-4.6,14.2-11.6,0-3.8-2.6-8.5-7.1-9.4-5.3-1.1-10.3,3.6-11.9,7.9-1.8,5.1.4,11.6,4.7,13ZM70.4,168.5c.9-4.6-13.5-12.5-16.6-10.1-2.4,1.9-.3,12.3,7.1,13.7,3.9.8,9-1.1,9.5-3.6ZM420.6,358.5c-2.3,3.3,1.2,9.3,5.5,12.3,4.4,3.1,12.1,4.6,15,1.4,2.9-3.1.3-9.7-4-13-5.1-4-14.1-4.3-16.6-.7Z"/>
  <path class="cls-15" d="M111.7,221.6c-11.9-13.7-96.4-.5-106,47.1-5,24.8,10.8,56.1,33.2,64.1,13.3,4.8,25.5,0,34.8,9.6,5.9,6,9.9,16.9,4.7,23.6-4.5,5.9-14.9,7-22.1,4.4-9.7-3.5-9.1-12-17.4-14.7-9.3-3-22.4,3.6-28.5,12.5-8.9,13.2-2.2,30.9,7.1,40.5,10.8,11.2,25.7,12.4,35.6,13.3,6.1.5,35.7,3,59.3-17.7,3.1-2.8,27.5-24.9,22.1-56-2.9-16.8-14.2-33.9-30.9-42.3-19.8-9.9-35.2-1.5-43.5-12.3-7.3-9.5-3.7-26.9,5.6-32.7,5-3.1,12-3,26.1-2.7,10.8.2,13.2,1.4,16.6-.7,7.2-4.6,6.6-16.9,6.3-22.1-.3-5.2-.6-10.9-3.2-13.9Z"/>
  <path class="cls-12" d="M264.4,227.9c-1.5,2.6-14.1,25-.6,44.7,1.5,2.2,14.2,20.1,33.4,17.8,11.3-1.3,22.6-9.3,24.9-18.4,1.2-4.6,0-9.2,1.4-9.5,2-.4,3.7,8.9,12.2,13,1.4.7,5.6,2.7,9.3,1.2,5.4-2.2,5.7-10.3,5.8-10.6.3-8.5-7.1-9.9-11.8-22.5-2.6-6.8-1-8-4.2-14.2-3.4-6.5-7.9-10.6-9.8-12.2-5.7-4.8-11.4-6.9-13-7.5-2.8-1-13.2-4.5-24.6-1.3-13.8,3.8-20.3,15-22.9,19.5Z"/>
  <path class="cls-3" d="M151.3,255.5c7.2.2,19,1.7,28.5,9.4,18.5,15,12.8,41.2,11.1,49.1-1.9,8.9-4.2,19.4-14.2,26.7-14.9,10.9-34.9,6.2-39.6,5.1-5-1.2-19.9-4.7-28.5-17.3-8.1-11.9-5.7-24.5-4-33.9,1.5-7.9,3.3-17.5,11.9-26,12.6-12.4,30.5-13,34.8-13Z"/>
  <path class="cls-5" d="M146.9,291.8c6.5-3.3,15.1-.3,18.2,5.8,3.3,6.3-.3,14.4-7.1,16.6-5.6,1.8-12-.8-15-5.1-3.9-5.4-2.7-13.9,4-17.3Z"/>
  <path class="cls-14" d="M209.1,309.6c-4.7-1-21.2-4.3-32.4-17.9-11.2-13.7-13.1-32.1-6.2-46.8,1.4-2.9,6-12.4,16.7-19,12.9-7.9,20.9-3,29.2-10.1,3.5-3,4.8-6.1,9.5-31.8,4.4-23.8,4.5-28.2,9.5-32.5,9.2-8,26.7-8.3,31.3-2.4,2,2.6.3,9.3-3.3,22.7-2.1,7.9-2.4,7.6-3.8,13.1-3.5,14-3.9,24.4-4,26.6-.2,6,.3,10.1,1.1,18.1,1.1,10.2,2.3,21.7,5.9,36.2,3.2,13,5.8,18.7,2.8,26.6-2.2,5.7-5.9,9.1-6.7,9.8-2.7,2.3-7.3,5.2-21.3,6.9-12.1,1.5-19.1,2.5-28.4.6Z"/>
  <path class="cls-4" d="M326.7,164.1c5.5-4.2,14.4-5.7,20.6-2.6,9.5,4.7,9.8,18.8,9.9,24.3.3,16.9-8.6,25.5-3.4,31,3.1,3.3,10.1,4.1,13.8,1.6,5.6-3.7,2.1-13.7-.5-34-3.2-25.4-4.7-38.2,3-45.7,7.1-6.9,21.4-9.5,29.2-4.4,10.4,6.8.3,21.4,4.9,53.7,3.7,25.8,13.1,37.5,4.9,46.2-4.5,4.8-14,8.3-21.2,6.2-6.5-1.9-7.8-7.4-11.5-6.9-6.1.7-3.9,15.6-12.9,21.4-8.8,5.7-26.7,1.5-36.2-7.9-6.2-6.1-6.5-20.1-7-48-.4-23.9.8-30.5,6.6-34.9Z"/>
  <path class="cls-11" d="M401.6,295.2c-5.9-11.7,6.7-19.2,10.3-41.9,2.3-14.5-.4-27.3-5-49.5-1.9-9-3.9-16.1-3.7-27.3.3-18.9,6.3-25.5,7.9-27.2,4.9-5,10.8-7,15.8-8.7,3.9-1.3,14-4.7,25.7-2.6,19.8,3.7,29.6,21.1,31.9,25.2,7.1,12.7,10,30.8,1.6,44.9-4.5,7.5-12.1,13.6-16.1,16.8-5.1,4.1-8.4,5.7-10.8,6.7-7.1,2.9-9.8,1.5-13.2,3.2-7.7,3.9-4.4,16.8-6.6,34.5-1.3,10.5-4.4,34.8-16.3,37.8-7.2,1.8-17.5-4.2-21.4-12Z"/>
  <path class="cls-8" d="M219.9,241.8c3.3.5,4.8,5.7,7,13.2,2.3,7.9,6.6,22.5,0,26.5-5.5,3.4-17.7-1-22.2-8.6-7.6-12.8,8.2-32.1,15.1-31.1Z"/>
  <path class="cls-13" d="M287.2,233.3c5.3-1.6,12.1,4.3,14.9,9.1,2.7,4.5,2.4,8.8,2.2,10.4,0,.6-1.3,10.1-6.9,11.5-5.7,1.5-13.7-6-15.8-13.7-1.7-6.4,0-15.7,5.5-17.3Z"/>
  <path class="cls-16" d="M443.6,205.8c-3.1-1.2-3.2-6.6-3.4-14.4-.2-8.2-.6-23.3,6.8-25.8,6.2-2.1,16.9,4.8,19.4,13.2,4,14.1-16.3,29.4-22.7,27Z"/>
  <path class="cls-17" d="M373.1,323.1c13.8-3.5,28.8,6.5,30.1,19.5,1,10.3-6.9,21-19,23.1-12.7,2.2-25.2-5.9-27.7-17.3-2.4-11.1,5.2-22.4,16.6-25.3Z"/>
  <path class="cls-9" d="M234.5,352c-24.5-7.8-48.1,6.7-59.3,20.9-2.1,2.6-17.1,22.3-8.7,43.3,9.9,24.7,47,38.4,73.6,26,24.9-11.6,26.8-39.8,26.9-41.2.9-18.2-8.9-41.7-32.4-49.1Z"/>
  <path class="cls-10" d="M273.4,367.1c5.7.2,11.7-2.3,15-6.5,7.5-9.4,2.9-27.4-10.3-32.5-9.2-3.6-22.4-.8-26.9,7.2-3.9,7,.6,15,2.4,18.1,1.3,2.2,7.8,13.3,19.8,13.7Z"/>
  <path class="cls-6" d="M142.1,206.1c-9.4-1.8-14.3-11-15-18.1-1-9.7,5.6-20.8,15-22.4,11.7-1.9,25.9,11.1,23.7,23.8-1.7,9.7-12.9,18.7-23.7,16.6Z"/>
  <path class="cls-1" d="M304.1,160.6c6-1.3,8.8-7.1,9.5-8.7,3.4-7.1,2.9-19.2-6.3-23.8-7.6-3.8-18.7-1.3-22.1,4.3-2.2,3.6-1.1,8.3,0,13,.7,3,1.3,5.4,3.2,7.9,2.9,3.9,9.2,8.7,15.8,7.2Z"/>
  <path class="cls-2" d="M373.7,104.2c1.5-.6,11.5-5.1,14.2-15.2,2.9-10.6-4.1-20.3-11.1-25.3-9.3-6.6-25.9-9.8-36.4-.7-10.6,9.1-9.1,25.2,0,34.7,8.2,8.5,22.3,11.2,33.2,6.5Z"/>
</svg>